<svg id="Layer_1" data-name="Layer 1" xmlns="http://www.w3.org/2000/svg" viewBox="0 0 463.83 54.22"><defs><style>.cls-1{fill:#212931;}</style></defs><path class="cls-1" d="M36,90.38a14.28,14.28,0,0,1-3.76,2,13.06,13.06,0,0,1-4.35.72A12.84,12.84,0,0,1,22.82,92a13.46,13.46,0,0,1-4.18-2.8,13.76,13.76,0,0,1-4.11-9.38,12.46,12.46,0,0,1,1-5,14.46,14.46,0,0,1,2.81-4.3,13.74,13.74,0,0,1,4.23-3,12.48,12.48,0,0,1,5.28-1.13,13.14,13.14,0,0,1,3.73.53A13.64,13.64,0,0,1,35,68.46a1.79,1.79,0,0,1,.6.94,1.51,1.51,0,0,1,0,1.15L35,71.79a1.62,1.62,0,0,1-.82.79,1.38,1.38,0,0,1-1.27-.09,8.86,8.86,0,0,0-2-.77,8.2,8.2,0,0,0-2.18-.29,7.88,7.88,0,0,0-3.18.66,8.61,8.61,0,0,0-2.69,1.79A8.43,8.43,0,0,0,21,76.55a8,8,0,0,0-.69,3.31A7.84,7.84,0,0,0,21,83.08a8.89,8.89,0,0,0,1.82,2.68,9.13,9.13,0,0,0,2.68,1.84,7.77,7.77,0,0,0,3.25.69A8.53,8.53,0,0,0,31,88a8.89,8.89,0,0,0,2.14-.91,2.25,2.25,0,0,1,1.2-.33,1.37,1.37,0,0,1,.82.44l1,1.06A1.51,1.51,0,0,1,36,90.38Z" transform="translate(-14.53 -66.37)"/><path class="cls-1" d="M52.91,66.44A12.43,12.43,0,0,1,58,67.5a14.19,14.19,0,0,1,4.23,2.87,13.78,13.78,0,0,1,2.9,4.23,12.76,12.76,0,0,1,0,10.23A13.42,13.42,0,0,1,62.26,89a13.81,13.81,0,0,1-9.35,4,12.82,12.82,0,0,1-5-1,13.51,13.51,0,0,1-4.23-2.82,13.8,13.8,0,0,1-2.92-4.21,12.56,12.56,0,0,1-1.1-5.22,12.43,12.43,0,0,1,1.07-5.07,13.74,13.74,0,0,1,7.08-7.13A12.39,12.39,0,0,1,52.91,66.44Zm0,21.88a5.85,5.85,0,0,0,2.85-.71,7.28,7.28,0,0,0,2.3-1.91A9.4,9.4,0,0,0,59.59,83a9.76,9.76,0,0,0,.55-3.24,9.91,9.91,0,0,0-.5-3,9.39,9.39,0,0,0-1.43-2.78,7.64,7.64,0,0,0-2.29-2,5.87,5.87,0,0,0-3-.78,6.05,6.05,0,0,0-2.92.73,7.52,7.52,0,0,0-2.28,1.93,9,9,0,0,0-1.49,2.76,9.93,9.93,0,0,0-.53,3.19,9.42,9.42,0,0,0,.5,3.08,8.59,8.59,0,0,0,1.43,2.67,8,8,0,0,0,2.28,2A6.77,6.77,0,0,0,52.91,88.32Z" transform="translate(-14.53 -66.37)"/><path class="cls-1" d="M90.7,92.75A1,1,0,0,1,90,92.5a1,1,0,0,1-.38-.6L87.51,82c-.05-.23-.12-.36-.23-.37s-.22.09-.34.3l-5.2,10.27c-.12.21-.25.32-.39.32s-.27-.11-.39-.32l-5-9.81c-.12-.21-.23-.31-.34-.3s-.18.15-.23.41l-2,9.42a1.09,1.09,0,0,1-1.06.85H69.59A.68.68,0,0,1,69,92.5a.73.73,0,0,1-.13-.6l5.24-24.58c0-.26.13-.39.23-.4s.22.09.34.3l6.83,14c.12.21.26.32.41.32s.29-.11.41-.32L89.7,67.36q.18-.31.36-.3c.12,0,.2.15.25.41l5.2,24.43a.67.67,0,0,1-.71.85Z" transform="translate(-14.53 -66.37)"/><path class="cls-1" d="M108.29,66.79a8.15,8.15,0,0,1,3.31.69,8.88,8.88,0,0,1,2.77,1.88,9.12,9.12,0,0,1,1.89,2.78A8.2,8.2,0,0,1,117,75.5a8.1,8.1,0,0,1-.67,3.26,9.16,9.16,0,0,1-1.86,2.78,9,9,0,0,1-2.76,1.95,8.06,8.06,0,0,1-3.39.72h-1.48a.88.88,0,0,0-.64.25.86.86,0,0,0-.25.64v6.76a.84.84,0,0,1-.25.64.82.82,0,0,1-.63.25h-4a.86.86,0,0,1-.64-.25.88.88,0,0,1-.25-.64V67.68a.86.86,0,0,1,.89-.89Zm3.16,8.71a5.16,5.16,0,0,0-.18-1.57,4.14,4.14,0,0,0-.66-1.37,3.36,3.36,0,0,0-1.11-1,3.23,3.23,0,0,0-1.6-.37h-1.09a.86.86,0,0,0-.89.88v6.8a.86.86,0,0,0,.89.89h1.09a3,3,0,0,0,2.57-1.22A5.44,5.44,0,0,0,111.45,75.5Z" transform="translate(-14.53 -66.37)"/><path class="cls-1" d="M130.32,90.13a1.24,1.24,0,0,0-.48-.59,1.26,1.26,0,0,0-.72-.23h-5.56a1.29,1.29,0,0,0-.73.23,1.37,1.37,0,0,0-.48.59l-.74,1.8a1.31,1.31,0,0,1-.48.59,1.29,1.29,0,0,1-.73.23h-3a.61.61,0,0,1-.55-.23.58.58,0,0,1,0-.59l10-24.53c.09-.24.2-.36.32-.36s.22.12.32.36l9.91,24.53a.6.6,0,0,1,0,.59.62.62,0,0,1-.55.23H132.3a1.26,1.26,0,0,1-.72-.23,1.48,1.48,0,0,1-.52-.59Zm-3-5.24a.62.62,0,0,0,.54-.23.58.58,0,0,0,0-.59l-1.24-3c-.09-.24-.2-.36-.32-.36s-.22.12-.31.36l-1.24,3a.61.61,0,0,0,0,.59.63.63,0,0,0,.55.23Z" transform="translate(-14.53 -66.37)"/><path class="cls-1" d="M162,89a13.88,13.88,0,0,1-4.41,3,13.33,13.33,0,0,1-5.36,1.08,12.72,12.72,0,0,1-5.07-1A13.59,13.59,0,0,1,143,89.26a13.85,13.85,0,0,1-2.91-4.2,13.66,13.66,0,0,1-1.2-5.2,12.46,12.46,0,0,1,1-5,14.46,14.46,0,0,1,2.81-4.3,13.74,13.74,0,0,1,4.23-3,12.48,12.48,0,0,1,5.28-1.13A13.24,13.24,0,0,1,159,68.28a1.73,1.73,0,0,1,1,1.2,2.21,2.21,0,0,1-.12,1.17l-.6,1.35a1.23,1.23,0,0,1-.82.65,1.21,1.21,0,0,1-1.06-.09,8.68,8.68,0,0,0-2-.83,8.37,8.37,0,0,0-2.25-.3,7.88,7.88,0,0,0-3.18.66,8.69,8.69,0,0,0-4.55,4.46,8,8,0,0,0-.69,3.31,7.31,7.31,0,0,0,.65,3,8.56,8.56,0,0,0,4.39,4.37,7.73,7.73,0,0,0,3.21.67,7.88,7.88,0,0,0,3-.55,8.07,8.07,0,0,0,2.48-1.54,1.47,1.47,0,0,0,.41-.58,1.71,1.71,0,0,0,.12-.55V82.8a.86.86,0,0,0-.25-.64.88.88,0,0,0-.64-.25h-6.58a.81.81,0,0,1-.62-.24.83.83,0,0,1-.2-.64l.22-2.66a.94.94,0,0,1,.3-.64.92.92,0,0,1,.65-.24h10.66a.84.84,0,0,1,.89.88v7.3a5.26,5.26,0,0,1-.32,1.77A4.27,4.27,0,0,1,162,89Z" transform="translate(-14.53 -66.37)"/><path class="cls-1" d="M187.93,66.79a.86.86,0,0,1,.89.89V92.57c0,.26-.06.41-.18.46s-.27,0-.46-.18L175.11,80.6c-.19-.16-.34-.22-.46-.17s-.18.2-.18.46v11a.88.88,0,0,1-.24.64.86.86,0,0,1-.64.25h-4a.82.82,0,0,1-.63-.25.84.84,0,0,1-.25-.64V67.47c0-.26.06-.42.17-.46s.28,0,.46.17l13.07,12.25c.19.17.34.23.46.18s.18-.2.18-.46V67.68a.86.86,0,0,1,.88-.89Z" transform="translate(-14.53 -66.37)"/><path class="cls-1" d="M200.47,91.86a.88.88,0,0,1-.25.64.86.86,0,0,1-.64.25h-4a.82.82,0,0,1-.63-.25.84.84,0,0,1-.25-.64V67.68a.86.86,0,0,1,.88-.89h4a.86.86,0,0,1,.89.89Z" transform="translate(-14.53 -66.37)"/><path class="cls-1" d="M211.76,87.44a.82.82,0,0,0,.25.63.84.84,0,0,0,.64.25h6.55a.84.84,0,0,1,.62.25.82.82,0,0,1,.19.64l-.21,2.65a1,1,0,0,1-.3.64.92.92,0,0,1-.66.25h-12a.86.86,0,0,1-.64-.25.88.88,0,0,1-.25-.64V67.68a.86.86,0,0,1,.89-.89h12a1,1,0,0,1,.66.25,1,1,0,0,1,.3.64l.21,2.65a.81.81,0,0,1-.19.64.8.8,0,0,1-.62.25h-6.55a.86.86,0,0,0-.89.88v7.12a.86.86,0,0,0,.25.64.88.88,0,0,0,.64.25h5.13a.81.81,0,0,1,.62.24.79.79,0,0,1,.19.64l-.21,2.66a.94.94,0,0,1-.3.64.93.93,0,0,1-.65.24h-4.78a.88.88,0,0,0-.64.25.86.86,0,0,0-.25.64Z" transform="translate(-14.53 -66.37)"/><path class="cls-1" d="M248.44,71.22a.82.82,0,0,0-.63.25.84.84,0,0,0-.25.63V91.86a.86.86,0,0,1-.89.89h-4a.86.86,0,0,1-.89-.89V72.1a.84.84,0,0,0-.25-.63.82.82,0,0,0-.63-.25h-4a.79.79,0,0,1-.62-.25.78.78,0,0,1-.19-.64l.21-2.65a.94.94,0,0,1,.95-.89h14.84a1,1,0,0,1,.66.25,1,1,0,0,1,.3.64l.21,2.65a.78.78,0,0,1-.82.89Z" transform="translate(-14.53 -66.37)"/><path class="cls-1" d="M267.32,77.27c.7.41,1.43.84,2.17,1.31a10.5,10.5,0,0,1,2,1.67A8.28,8.28,0,0,1,273,82.48a7.06,7.06,0,0,1,.58,3,6.42,6.42,0,0,1-.74,3.07,8.3,8.3,0,0,1-1.91,2.4,9.58,9.58,0,0,1-2.66,1.62,8.33,8.33,0,0,1-3,.63h0a9.69,9.69,0,0,1-4.23-1,13.08,13.08,0,0,1-3.52-2.53A2.86,2.86,0,0,1,257,89a2.2,2.2,0,0,1-.26-.81,1.77,1.77,0,0,1,.1-.85,1.8,1.8,0,0,1,.59-.78l1.38-1a2.83,2.83,0,0,1,1.1-.46,1.37,1.37,0,0,1,1.2.5A7.55,7.55,0,0,0,263,87.1a4.42,4.42,0,0,0,2.26.62,2.94,2.94,0,0,0,1.17-.23,2.91,2.91,0,0,0,.9-.58,3.21,3.21,0,0,0,.59-.73,1.43,1.43,0,0,0,.21-.69,1.91,1.91,0,0,0-.34-1.13,4.11,4.11,0,0,0-.86-.92,7.79,7.79,0,0,0-1.24-.8c-.48-.25-1-.51-1.45-.8-.71-.42-1.46-.88-2.24-1.36a12.28,12.28,0,0,1-2.12-1.67,8.16,8.16,0,0,1-1.59-2.16,6,6,0,0,1-.64-2.85,7,7,0,0,1,.71-3.24,6.83,6.83,0,0,1,1.86-2.31,8.05,8.05,0,0,1,2.62-1.4,9.44,9.44,0,0,1,3-.48,8.92,8.92,0,0,1,2.69.41A11.82,11.82,0,0,1,271,67.86a1.77,1.77,0,0,1,.64.6,1.69,1.69,0,0,1,.23.76,1.94,1.94,0,0,1-.15.81,2,2,0,0,1-.47.73l-1,1a2.5,2.5,0,0,1-1,.69,2.41,2.41,0,0,1-1.51-.12,4.69,4.69,0,0,0-1.95-.5,4.29,4.29,0,0,0-.93.11,3,3,0,0,0-.87.33,2.13,2.13,0,0,0-.64.59,1.45,1.45,0,0,0-.25.88,1.3,1.3,0,0,0,.36.85,6.17,6.17,0,0,0,.93.89,10.54,10.54,0,0,0,1.35.9C266.25,76.67,266.77,77,267.32,77.27Z" transform="translate(-14.53 -66.37)"/><path class="cls-1" d="M290.23,90.13a1.37,1.37,0,0,0-.48-.59,1.31,1.31,0,0,0-.73-.23h-5.56a1.26,1.26,0,0,0-.72.23,1.24,1.24,0,0,0-.48.59l-.74,1.8a1.33,1.33,0,0,1-1.21.82h-3a.63.63,0,0,1-.55-.23.61.61,0,0,1,0-.59l9.95-24.53c.09-.24.2-.36.31-.36s.23.12.32.36l9.92,24.53a.6.6,0,0,1,0,.59.63.63,0,0,1-.55.23h-4.46a1.31,1.31,0,0,1-.73-.23,1.53,1.53,0,0,1-.51-.59Zm-3-5.24a.63.63,0,0,0,.55-.23.61.61,0,0,0,0-.59l-1.24-3c-.1-.24-.2-.36-.32-.36s-.22.12-.32.36l-1.24,3a.61.61,0,0,0,0,.59.63.63,0,0,0,.55.23Z" transform="translate(-14.53 -66.37)"/><path class="cls-1" d="M320,66.79a.88.88,0,0,1,.63.25.86.86,0,0,1,.25.64V92.57c0,.26-.06.41-.18.46s-.27,0-.46-.18L307.19,80.6c-.19-.16-.35-.22-.46-.17s-.18.2-.18.46v11a.86.86,0,0,1-.88.89h-4a.86.86,0,0,1-.64-.25.88.88,0,0,1-.25-.64V67.47c0-.26.06-.42.18-.46s.27,0,.46.17l13.07,12.25c.18.17.34.23.46.18s.17-.2.17-.46V67.68a.86.86,0,0,1,.89-.89Z" transform="translate(-14.53 -66.37)"/><path class="cls-1" d="M332,79.22a.86.86,0,0,0,.88.89h4.43a.81.81,0,0,1,.62.24.79.79,0,0,1,.19.64l-.21,2.66a.94.94,0,0,1-.3.64.93.93,0,0,1-.65.24h-4.08a.86.86,0,0,0-.88.89v6.44a.86.86,0,0,1-.89.89h-4a.86.86,0,0,1-.89-.89V67.68a.86.86,0,0,1,.25-.64.88.88,0,0,1,.64-.25h12a1,1,0,0,1,.66.25,1,1,0,0,1,.3.64l.21,2.65a.78.78,0,0,1-.81.89h-6.56a.82.82,0,0,0-.63.25.84.84,0,0,0-.25.63Z" transform="translate(-14.53 -66.37)"/><path class="cls-1" d="M358.53,88.32a.82.82,0,0,1,.62.25.79.79,0,0,1,.19.64l-.21,2.65a.92.92,0,0,1-.3.64.9.9,0,0,1-.65.25H345.82a.86.86,0,0,1-.64-.25.88.88,0,0,1-.25-.64V67.68a.86.86,0,0,1,.89-.89h4a.88.88,0,0,1,.63.25.86.86,0,0,1,.25.64V87.44a.82.82,0,0,0,.25.63.84.84,0,0,0,.64.25Z" transform="translate(-14.53 -66.37)"/><path class="cls-1" d="M369.47,87.44a.82.82,0,0,0,.25.63.84.84,0,0,0,.64.25h6.55a.84.84,0,0,1,.62.25.79.79,0,0,1,.19.64l-.21,2.65a.94.94,0,0,1-1,.89h-12a.86.86,0,0,1-.64-.25.88.88,0,0,1-.25-.64V67.68a.86.86,0,0,1,.89-.89h12a1,1,0,0,1,.66.25.94.94,0,0,1,.3.64l.21,2.65a.78.78,0,0,1-.19.64.8.8,0,0,1-.62.25h-6.55a.86.86,0,0,0-.89.88v7.12a.86.86,0,0,0,.25.64.88.88,0,0,0,.64.25h5.13a.81.81,0,0,1,.62.24.83.83,0,0,1,.2.64l-.22,2.66a.94.94,0,0,1-.3.64.92.92,0,0,1-.65.24h-4.78a.88.88,0,0,0-.64.25.86.86,0,0,0-.25.64Z" transform="translate(-14.53 -66.37)"/><path class="cls-1" d="M401.3,67a.86.86,0,0,1,.25.64V83.47h0a9.63,9.63,0,0,1-5.74,8.62,8.78,8.78,0,0,1-3.65.76,9,9,0,0,1-3.54-.72,9.81,9.81,0,0,1-3-2,9.71,9.71,0,0,1-2.07-3,8.83,8.83,0,0,1-.78-3.7V67.68A.86.86,0,0,1,383,67a.88.88,0,0,1,.63-.25h4a.86.86,0,0,1,.89.89V83.47a3.3,3.3,0,0,0,.28,1.35A3.94,3.94,0,0,0,389.6,86a3.8,3.8,0,0,0,1.13.8,3.44,3.44,0,0,0,3.88-.75,3.72,3.72,0,0,0,1.1-2.53h0V67.68a.84.84,0,0,1,.88-.89h4A.86.86,0,0,1,401.3,67Z" transform="translate(-14.53 -66.37)"/><path class="cls-1" d="M424.32,91.93a.58.58,0,0,1,0,.59.62.62,0,0,1-.55.23h-4.49a1.29,1.29,0,0,1-.73-.23,1.31,1.31,0,0,1-.48-.59L415.26,85a1.5,1.5,0,0,0-.43-.59.93.93,0,0,0-.57-.23h-.7a.88.88,0,0,0-.64.25.86.86,0,0,0-.25.64v6.76a.86.86,0,0,1-.88.89h-4a.86.86,0,0,1-.64-.25.88.88,0,0,1-.25-.64V67.68a.86.86,0,0,1,.89-.89H415a8.15,8.15,0,0,1,3.31.69,9,9,0,0,1,2.77,1.88A9.12,9.12,0,0,1,423,72.14a8.2,8.2,0,0,1,.71,3.36A8.35,8.35,0,0,1,423,79a9.06,9.06,0,0,1-2.11,2.91,1.68,1.68,0,0,0-.21.46.78.78,0,0,0,0,.6Zm-11.65-13a.86.86,0,0,0,.89.89h1.09a3,3,0,0,0,2.57-1.22,5.36,5.36,0,0,0,1-3.07,4.86,4.86,0,0,0-.17-1.57,4.14,4.14,0,0,0-.66-1.37,3.36,3.36,0,0,0-1.11-1,3.23,3.23,0,0,0-1.6-.37h-1.09a.86.86,0,0,0-.89.88Z" transform="translate(-14.53 -66.37)"/><path class="cls-1" d="M440.68,66.44a12.34,12.34,0,0,1,5.06,1.06A13.94,13.94,0,0,1,450,70.37a13.64,13.64,0,0,1,2.91,4.23,12.76,12.76,0,0,1,0,10.23,13.63,13.63,0,0,1-7.09,7A13.43,13.43,0,0,1,440.68,93a12.79,12.79,0,0,1-5-1,13.64,13.64,0,0,1-7.15-7,12.56,12.56,0,0,1-1.1-5.22,12.43,12.43,0,0,1,1.06-5.07,13.84,13.84,0,0,1,7.08-7.13A12.44,12.44,0,0,1,440.68,66.44Zm0,21.88a5.9,5.9,0,0,0,2.85-.71,7.39,7.39,0,0,0,2.3-1.91A9.15,9.15,0,0,0,447.35,83a9.51,9.51,0,0,0,.55-3.24,9.89,9.89,0,0,0-.49-3A9.18,9.18,0,0,0,446,73.91a7.48,7.48,0,0,0-2.28-2,5.9,5.9,0,0,0-3-.78,6,6,0,0,0-2.92.73,7.44,7.44,0,0,0-2.29,1.93A9.14,9.14,0,0,0,434,76.53a9.89,9.89,0,0,0,0,6.27,8.61,8.61,0,0,0,1.44,2.67,7.88,7.88,0,0,0,2.28,2A6.77,6.77,0,0,0,440.68,88.32Z" transform="translate(-14.53 -66.37)"/><path class="cls-1" d="M477.47,66.79a.86.86,0,0,1,.89.89V92.57c0,.26-.06.41-.18.46s-.27,0-.46-.18L464.65,80.6c-.19-.16-.34-.22-.46-.17s-.18.2-.18.46v11a.88.88,0,0,1-.24.64.86.86,0,0,1-.64.25h-4a.82.82,0,0,1-.63-.25.84.84,0,0,1-.25-.64V67.47c0-.26.06-.42.17-.46s.28,0,.46.17l13.07,12.25c.19.17.34.23.46.18s.18-.2.18-.46V67.68a.86.86,0,0,1,.88-.89Z" transform="translate(-14.53 -66.37)"/><path class="cls-1" d="M23.4,117.93a.83.83,0,0,0-.3-.37.76.76,0,0,0-.46-.14H19.13a.8.8,0,0,0-.46.14.83.83,0,0,0-.3.37l-.47,1.14a.83.83,0,0,1-.3.37.77.77,0,0,1-.46.15h-1.9a.35.35,0,0,1-.36-.52l6.29-15.5c.06-.15.12-.22.2-.22s.14.07.2.22l6.26,15.5a.37.37,0,0,1,0,.37.39.39,0,0,1-.35.15H24.66a.77.77,0,0,1-.46-.15,1.06,1.06,0,0,1-.33-.37Zm-1.87-3.31a.39.39,0,0,0,.34-.14.37.37,0,0,0,0-.37l-.78-1.93C21,112,21,112,20.9,112s-.14.07-.2.22l-.78,1.93a.37.37,0,0,0,0,.37.39.39,0,0,0,.34.14Z" transform="translate(-14.53 -66.37)"/><path class="cls-1" d="M29.87,103.19a.81.81,0,0,1,.46.15.83.83,0,0,1,.3.37l2.79,6.89c.06.14.13.22.2.22s.15-.08.21-.22l2.79-6.89a.83.83,0,0,1,.3-.37.79.79,0,0,1,.46-.15h1.88a.4.4,0,0,1,.35.15.4.4,0,0,1,0,.37l-6.26,15.5c-.06.14-.13.22-.2.22s-.15-.08-.21-.22l-6.28-15.5a.37.37,0,0,1,0-.37.39.39,0,0,1,.35-.15Z" transform="translate(-14.53 -66.37)"/><path class="cls-1" d="M45.84,116.23a.53.53,0,0,0,.55.56h4.14a.47.47,0,0,1,.39.16.5.5,0,0,1,.13.4L50.91,119a.58.58,0,0,1-.19.4.6.6,0,0,1-.41.16H42.73a.58.58,0,0,1-.41-.16.55.55,0,0,1-.15-.4V103.75a.55.55,0,0,1,.15-.4.58.58,0,0,1,.41-.16h7.58a.6.6,0,0,1,.41.16.58.58,0,0,1,.19.4l.14,1.68a.5.5,0,0,1-.13.4.47.47,0,0,1-.39.16H46.39a.57.57,0,0,0-.4.15.58.58,0,0,0-.15.41V111a.58.58,0,0,0,.15.41.57.57,0,0,0,.4.15h3.25a.5.5,0,0,1,.39.16.46.46,0,0,1,.12.4L50,113.84a.63.63,0,0,1-.19.4.61.61,0,0,1-.42.16h-3a.57.57,0,0,0-.4.15.58.58,0,0,0-.15.41Z" transform="translate(-14.53 -66.37)"/><path class="cls-1" d="M67.1,118.09a8.68,8.68,0,0,1-2.37,1.26,8.06,8.06,0,0,1-2.75.46,8.41,8.41,0,0,1-3.2-.67,8.59,8.59,0,0,1-4.47-4.41,8.76,8.76,0,0,1-.76-3.28,8,8,0,0,1,.65-3.14A8.91,8.91,0,0,1,56,105.6a8.6,8.6,0,0,1,2.67-1.92A7.93,7.93,0,0,1,62,103a8.36,8.36,0,0,1,2.36.33,9.11,9.11,0,0,1,2.11.94,1.06,1.06,0,0,1,.38.6.89.89,0,0,1,0,.72l-.33.79a1.06,1.06,0,0,1-.52.5.89.89,0,0,1-.8-.06,5.82,5.82,0,0,0-1.24-.49,5.22,5.22,0,0,0-1.38-.18,5,5,0,0,0-2,.42,5.54,5.54,0,0,0-2.88,2.81,5.09,5.09,0,0,0-.43,2.1,5,5,0,0,0,.42,2,5.54,5.54,0,0,0,2.84,2.85,5,5,0,0,0,2.06.44,5.45,5.45,0,0,0,2.75-.76,1.46,1.46,0,0,1,.76-.22,1,1,0,0,1,.52.28l.64.68a.88.88,0,0,1,.23.61A.89.89,0,0,1,67.1,118.09Z" transform="translate(-14.53 -66.37)"/><path class="cls-1" d="M83.7,103.19a8.39,8.39,0,0,1,3.14.69,8.13,8.13,0,0,1,2.6,1.74,8.36,8.36,0,0,1,1.78,2.59,7.82,7.82,0,0,1,.66,3.19,7.67,7.67,0,0,1-.64,3.09,8.36,8.36,0,0,1-1.74,2.6,8.63,8.63,0,0,1-2.59,1.81,7.59,7.59,0,0,1-3.21.69h-5a.56.56,0,0,1-.4-.16.52.52,0,0,1-.16-.4V103.75a.52.52,0,0,1,.16-.4.56.56,0,0,1,.4-.16Zm0,13.6a3.87,3.87,0,0,0,1.84-.42,4,4,0,0,0,1.33-1.17,5.2,5.2,0,0,0,.81-1.71A7.77,7.77,0,0,0,88,111.4a8.4,8.4,0,0,0-.24-2,5.46,5.46,0,0,0-.75-1.74,3.71,3.71,0,0,0-1.32-1.2A3.89,3.89,0,0,0,83.7,106H82.4a.54.54,0,0,0-.4.15.54.54,0,0,0-.16.41v9.68a.55.55,0,0,0,.56.56Z" transform="translate(-14.53 -66.37)"/><path class="cls-1" d="M98.23,116.23a.51.51,0,0,0,.16.4.52.52,0,0,0,.4.16h4.14a.5.5,0,0,1,.39.16.46.46,0,0,1,.12.4l-.13,1.68a.63.63,0,0,1-.19.4.6.6,0,0,1-.41.16H95.12a.58.58,0,0,1-.4-.16.56.56,0,0,1-.16-.4V103.75a.56.56,0,0,1,.16-.4.58.58,0,0,1,.4-.16h7.59a.6.6,0,0,1,.41.16.63.63,0,0,1,.19.4l.13,1.68a.46.46,0,0,1-.12.4.5.5,0,0,1-.39.16H98.79a.55.55,0,0,0-.4.15.54.54,0,0,0-.16.41V111a.54.54,0,0,0,.16.41.55.55,0,0,0,.4.15H102a.51.51,0,0,1,.4.16.53.53,0,0,1,.12.4l-.14,1.68a.55.55,0,0,1-.19.4.6.6,0,0,1-.41.16h-3a.55.55,0,0,0-.4.15.54.54,0,0,0-.16.41Z" transform="translate(-14.53 -66.37)"/><path class="cls-1" d="M115.21,116.79a.49.49,0,0,1,.51.56l-.13,1.68a.6.6,0,0,1-.61.56h-7.8a.54.54,0,0,1-.4-.16.52.52,0,0,1-.16-.4V103.75a.52.52,0,0,1,.16-.4.54.54,0,0,1,.4-.16h2.55a.55.55,0,0,1,.56.56v12.48a.54.54,0,0,0,.15.4.54.54,0,0,0,.41.16Z" transform="translate(-14.53 -66.37)"/><path class="cls-1" d="M123.62,103.19a5.19,5.19,0,0,1,2.09.44,5.64,5.64,0,0,1,1.74,1.18,5.84,5.84,0,0,1,1.2,1.76,5.29,5.29,0,0,1,0,4.18,6,6,0,0,1-1.17,1.76,6,6,0,0,1-1.75,1.23,5.09,5.09,0,0,1-2.13.46h-.94a.58.58,0,0,0-.41.15.57.57,0,0,0-.15.4V119a.55.55,0,0,1-.56.56H119a.54.54,0,0,1-.4-.16.52.52,0,0,1-.16-.4V103.75a.52.52,0,0,1,.16-.4.54.54,0,0,1,.4-.16Zm2,5.5a3.28,3.28,0,0,0-.12-1,2.54,2.54,0,0,0-.41-.86,2.19,2.19,0,0,0-.7-.62,2.15,2.15,0,0,0-1-.23h-.69a.52.52,0,0,0-.56.56v4.29a.54.54,0,0,0,.15.4.54.54,0,0,0,.41.16h.69a1.9,1.9,0,0,0,1.62-.77A3.42,3.42,0,0,0,125.61,108.69Z" transform="translate(-14.53 -66.37)"/><path class="cls-1" d="M143.5,103.19a.58.58,0,0,1,.4.16.56.56,0,0,1,.16.4V119a.56.56,0,0,1-.16.4.58.58,0,0,1-.4.16H141a.58.58,0,0,1-.41-.16.55.55,0,0,1-.15-.4V115a.54.54,0,0,0-.16-.41.55.55,0,0,0-.4-.15h-3.6a.54.54,0,0,0-.4.15.54.54,0,0,0-.16.41V119a.52.52,0,0,1-.16.4.56.56,0,0,1-.4.16h-2.55a.56.56,0,0,1-.4-.16.52.52,0,0,1-.16-.4V103.75a.52.52,0,0,1,.16-.4.56.56,0,0,1,.4-.16h2.55a.56.56,0,0,1,.4.16.52.52,0,0,1,.16.4V111a.54.54,0,0,0,.16.41.54.54,0,0,0,.4.15h3.6a.55.55,0,0,0,.4-.15.54.54,0,0,0,.16-.41v-7.29a.55.55,0,0,1,.15-.4.58.58,0,0,1,.41-.16Z" transform="translate(-14.53 -66.37)"/><path class="cls-1" d="M151.19,119a.52.52,0,0,1-.16.4.56.56,0,0,1-.4.16h-2.55a.56.56,0,0,1-.4-.16.52.52,0,0,1-.16-.4V103.75a.52.52,0,0,1,.16-.4.56.56,0,0,1,.4-.16h2.55a.56.56,0,0,1,.4.16.52.52,0,0,1,.16.4Z" transform="translate(-14.53 -66.37)"/><path class="cls-1" d="M167.05,103.19a.58.58,0,0,1,.4.16.55.55,0,0,1,.15.4v15.72c0,.17,0,.26-.11.29s-.17,0-.29-.11L159,111.92c-.12-.11-.22-.15-.29-.12s-.11.13-.11.29V119a.55.55,0,0,1-.56.56h-2.55a.54.54,0,0,1-.4-.16.52.52,0,0,1-.16-.4V103.62c0-.17,0-.26.11-.29s.17,0,.29.11l8.25,7.74c.12.1.22.14.3.11s.11-.13.11-.29v-7.25a.55.55,0,0,1,.15-.4.58.58,0,0,1,.41-.16Z" transform="translate(-14.53 -66.37)"/><path class="cls-1" d="M174.85,116.23a.55.55,0,0,0,.56.56h4.14a.49.49,0,0,1,.51.56l-.13,1.68a.6.6,0,0,1-.61.56h-7.58a.56.56,0,0,1-.4-.16.52.52,0,0,1-.16-.4V103.75a.52.52,0,0,1,.16-.4.56.56,0,0,1,.4-.16h7.58a.6.6,0,0,1,.61.56l.13,1.68a.49.49,0,0,1-.51.56h-4.14a.54.54,0,0,0-.4.15.54.54,0,0,0-.16.41V111a.54.54,0,0,0,.16.41.54.54,0,0,0,.4.15h3.24a.47.47,0,0,1,.39.16.5.5,0,0,1,.13.4l-.14,1.68a.58.58,0,0,1-.19.4.6.6,0,0,1-.41.16h-3a.54.54,0,0,0-.4.15.54.54,0,0,0-.16.41Z" transform="translate(-14.53 -66.37)"/><path class="cls-1" d="M198.44,117.93a.83.83,0,0,0-.3-.37.76.76,0,0,0-.46-.14h-3.51a.78.78,0,0,0-.46.14.83.83,0,0,0-.3.37l-.47,1.14a.83.83,0,0,1-.3.37.77.77,0,0,1-.46.15h-1.9a.4.4,0,0,1-.35-.15.4.4,0,0,1,0-.37l6.29-15.5c.06-.15.12-.22.2-.22s.14.07.2.22l6.26,15.5a.37.37,0,0,1,0,.37.39.39,0,0,1-.35.15H199.7a.77.77,0,0,1-.46-.15,1.06,1.06,0,0,1-.33-.37Zm-1.88-3.31a.41.41,0,0,0,.35-.14.37.37,0,0,0,0-.37l-.78-1.93c-.06-.15-.13-.22-.2-.22s-.14.07-.2.22l-.79,1.93a.37.37,0,0,0,0,.37.39.39,0,0,0,.34.14Z" transform="translate(-14.53 -66.37)"/><path class="cls-1" d="M210.7,110.55a1.8,1.8,0,0,0-.19.5,2.35,2.35,0,0,0-.08.55V119a.52.52,0,0,1-.16.4.54.54,0,0,1-.4.16h-2.55a.56.56,0,0,1-.4-.16.52.52,0,0,1-.16-.4v-7.45a2,2,0,0,0-.09-.55,2.16,2.16,0,0,0-.2-.5l-4-6.85a.35.35,0,0,1,0-.34.33.33,0,0,1,.32-.15h3.11a.85.85,0,0,1,.48.15,1,1,0,0,1,.35.34l2.06,3.56a.31.31,0,0,0,.28.2.32.32,0,0,0,.28-.2l2-3.56a1.08,1.08,0,0,1,.36-.34,1,1,0,0,1,.49-.15h2.11a.33.33,0,0,1,.32.15.35.35,0,0,1,0,.34Z" transform="translate(-14.53 -66.37)"/><path class="cls-1" d="M228.3,119.07a.4.4,0,0,1,0,.37.4.4,0,0,1-.35.15H225.1a.79.79,0,0,1-.46-.15.83.83,0,0,1-.3-.37l-1.77-4.36a1,1,0,0,0-.26-.37.55.55,0,0,0-.36-.14h-.45a.55.55,0,0,0-.4.15.54.54,0,0,0-.16.4V119a.52.52,0,0,1-.16.4.54.54,0,0,1-.4.16h-2.55a.55.55,0,0,1-.56-.56V103.75a.55.55,0,0,1,.56-.56h4.61a5.16,5.16,0,0,1,2.09.44,5.64,5.64,0,0,1,1.74,1.18,5.84,5.84,0,0,1,1.2,1.76,5.14,5.14,0,0,1,.45,2.12,5.22,5.22,0,0,1-.48,2.2,5.74,5.74,0,0,1-1.33,1.83,1.12,1.12,0,0,0-.14.29.5.5,0,0,0,0,.38Zm-7.36-8.23a.51.51,0,0,0,.16.4.52.52,0,0,0,.4.16h.69a1.9,1.9,0,0,0,1.62-.77,3.35,3.35,0,0,0,.62-1.94,3.27,3.27,0,0,0-.11-1,2.55,2.55,0,0,0-.42-.86,2.09,2.09,0,0,0-.7-.62,2.12,2.12,0,0,0-1-.23h-.69a.55.55,0,0,0-.4.15.54.54,0,0,0-.16.41Z" transform="translate(-14.53 -66.37)"/><path class="cls-1" d="M238.54,106a.55.55,0,0,0-.4.15.54.54,0,0,0-.16.41V119a.55.55,0,0,1-.15.4.58.58,0,0,1-.41.16h-2.55a.58.58,0,0,1-.4-.16.56.56,0,0,1-.16-.4V106.55a.58.58,0,0,0-.15-.41.57.57,0,0,0-.4-.15h-2.51a.5.5,0,0,1-.39-.16.46.46,0,0,1-.12-.4l.13-1.68a.63.63,0,0,1,.19-.4.61.61,0,0,1,.42-.16h9.37a.6.6,0,0,1,.41.16.63.63,0,0,1,.19.4l.13,1.68a.46.46,0,0,1-.12.4.5.5,0,0,1-.39.16Z" transform="translate(-14.53 -66.37)"/><path class="cls-1" d="M251.27,103a7.77,7.77,0,0,1,3.19.67,8.86,8.86,0,0,1,2.68,1.81,8.75,8.75,0,0,1,1.83,2.67,8,8,0,0,1,.68,3.24,7.85,7.85,0,0,1-.67,3.23,8.8,8.8,0,0,1-1.81,2.64,8.92,8.92,0,0,1-2.66,1.8,8.64,8.64,0,0,1-3.24.71,7.87,7.87,0,0,1-3.18-.65,8.55,8.55,0,0,1-4.52-4.44,7.92,7.92,0,0,1-.69-3.29,7.78,7.78,0,0,1,.67-3.2,8.69,8.69,0,0,1,1.81-2.67,8.85,8.85,0,0,1,2.66-1.84A8,8,0,0,1,251.27,103Zm0,13.82a3.75,3.75,0,0,0,1.8-.45,4.9,4.9,0,0,0,1.45-1.2,5.89,5.89,0,0,0,1-1.74,6.07,6.07,0,0,0,.35-2,6.23,6.23,0,0,0-.32-1.92,5.69,5.69,0,0,0-.9-1.75,5,5,0,0,0-1.44-1.28,3.81,3.81,0,0,0-1.9-.49,3.76,3.76,0,0,0-1.85.46A4.69,4.69,0,0,0,248,107.6a5.84,5.84,0,0,0-.94,1.74,6.34,6.34,0,0,0-.34,2,6.07,6.07,0,0,0,.32,1.94,5.6,5.6,0,0,0,.9,1.69,5.11,5.11,0,0,0,1.45,1.24A4.17,4.17,0,0,0,251.27,116.79Z" transform="translate(-14.53 -66.37)"/><path class="cls-1" d="M274.5,103.19a.58.58,0,0,1,.41.16.55.55,0,0,1,.15.4v15.72c0,.17,0,.26-.11.29s-.17,0-.29-.11l-8.25-7.73c-.12-.11-.22-.15-.29-.12s-.12.13-.12.29V119a.55.55,0,0,1-.15.4.58.58,0,0,1-.4.16H262.9a.58.58,0,0,1-.41-.16.55.55,0,0,1-.15-.4V103.62c0-.17,0-.26.11-.29s.17,0,.29.11l8.25,7.74c.12.1.22.14.29.11s.11-.13.11-.29v-7.25a.55.55,0,0,1,.56-.56Z" transform="translate(-14.53 -66.37)"/><path class="cls-1" d="M301.35,113.89a.75.75,0,0,1-.21.49,4.29,4.29,0,0,1-.77.51,5.52,5.52,0,0,1-1.16.4.61.61,0,0,0-.34.21,1.29,1.29,0,0,0-.22.37,6.79,6.79,0,0,1-1,1.85,7.16,7.16,0,0,1-1.46,1.5,6.94,6.94,0,0,1-1.86,1,6.21,6.21,0,0,1-2.16.37,6.3,6.3,0,0,1-2.53-.52,6.78,6.78,0,0,1-2.16-1.45,6.93,6.93,0,0,1-1.5-2.15,6.46,6.46,0,0,1-.56-2.65,6.69,6.69,0,0,1,.74-3,7.11,7.11,0,0,1,2.14-2.48.38.38,0,0,0,.15-.19.27.27,0,0,0,0-.17l0,0a3.5,3.5,0,0,1-.26-.83,4.53,4.53,0,0,1-.09-.91,3.82,3.82,0,0,1,.32-1.56,4.26,4.26,0,0,1,2.19-2.23,3.83,3.83,0,0,1,1.62-.35,3.87,3.87,0,0,1,2.37.78.65.65,0,0,1,.22.51.7.7,0,0,1-.24.5v0l-1.25,1.23a1,1,0,0,1-.41.24.74.74,0,0,1-.44,0l-.12,0h-.13a.9.9,0,0,0-.61.26.81.81,0,0,0-.28.64.82.82,0,0,0,.25.61.91.91,0,0,0,.64.28h2.06a.7.7,0,0,1,.52.21.74.74,0,0,1,.2.51v1.81a.69.69,0,0,1-.72.71h-2.19a3.92,3.92,0,0,0-1.33.37,3.83,3.83,0,0,0-1.07.78,3.36,3.36,0,0,0-.72,1.07,3.28,3.28,0,0,0-.26,1.3,3.41,3.41,0,0,0,.28,1.33,4.12,4.12,0,0,0,.75,1.13,3.53,3.53,0,0,0,1.11.78,3.3,3.3,0,0,0,1.37.29,3.79,3.79,0,0,0,2-.68,3.47,3.47,0,0,0,1.29-1.65.25.25,0,0,0,0-.24.45.45,0,0,0-.13-.16l-.53-.2a1.32,1.32,0,0,0-.48-.09,1,1,0,0,0-.47.12,2.46,2.46,0,0,0-.4.3.59.59,0,0,1-.78,0l-1.3-1.1a.63.63,0,0,1-.25-.45.73.73,0,0,1,.16-.51,6.81,6.81,0,0,1,1.37-1,3.57,3.57,0,0,1,1.67-.39,3.4,3.4,0,0,1,1.09.17c.35.11.69.24,1,.38l1,.38a2.59,2.59,0,0,0,.9.16,1,1,0,0,0,.65-.2.76.76,0,0,1,.55-.16.7.7,0,0,1,.43.21l1.19,1.18A.64.64,0,0,1,301.35,113.89Z" transform="translate(-14.53 -66.37)"/><path class="cls-1" d="M320.41,116.79a.51.51,0,0,1,.4.16.53.53,0,0,1,.12.4l-.14,1.68a.55.55,0,0,1-.19.4.6.6,0,0,1-.41.16h-7.8a.58.58,0,0,1-.41-.16.55.55,0,0,1-.15-.4V103.75a.55.55,0,0,1,.15-.4.58.58,0,0,1,.41-.16h2.55a.58.58,0,0,1,.4.16.55.55,0,0,1,.15.4v12.48a.54.54,0,0,0,.16.4.52.52,0,0,0,.4.16Z" transform="translate(-14.53 -66.37)"/><path class="cls-1" d="M328.73,110.55a2.77,2.77,0,0,0-.19.5,2.3,2.3,0,0,0-.07.55V119a.56.56,0,0,1-.16.4.58.58,0,0,1-.4.16h-2.55a.58.58,0,0,1-.41-.16.55.55,0,0,1-.15-.4v-7.45a2,2,0,0,0-.09-.55,2.73,2.73,0,0,0-.2-.5l-4-6.85a.33.33,0,0,1,0-.34.34.34,0,0,1,.33-.15H324a.9.9,0,0,1,.48.15,1.14,1.14,0,0,1,.35.34l2.05,3.56a.32.32,0,0,0,.28.2.31.31,0,0,0,.28-.2l2.06-3.56a1.11,1.11,0,0,1,.85-.49h2.1a.34.34,0,0,1,.33.15.33.33,0,0,1,0,.34Z" transform="translate(-14.53 -66.37)"/><path class="cls-1" d="M340.83,103.19a8.44,8.44,0,0,1,3.15.69,8.24,8.24,0,0,1,2.6,1.74,8.36,8.36,0,0,1,1.78,2.59,7.82,7.82,0,0,1,.66,3.19,7.67,7.67,0,0,1-.64,3.09,8.36,8.36,0,0,1-1.74,2.6,8.67,8.67,0,0,1-2.6,1.81,7.52,7.52,0,0,1-3.21.69h-5a.54.54,0,0,1-.4-.16.52.52,0,0,1-.16-.4V103.75a.52.52,0,0,1,.16-.4.54.54,0,0,1,.4-.16Zm0,13.6a3.91,3.91,0,0,0,1.85-.42A4,4,0,0,0,344,115.2a5.19,5.19,0,0,0,.8-1.71,7.77,7.77,0,0,0,.27-2.09,8.93,8.93,0,0,0-.23-2,5.46,5.46,0,0,0-.75-1.74,3.8,3.8,0,0,0-1.32-1.2,4,4,0,0,0-1.95-.45h-1.29a.52.52,0,0,0-.56.56v9.68a.54.54,0,0,0,.15.4.54.54,0,0,0,.41.16Z" transform="translate(-14.53 -66.37)"/><path class="cls-1" d="M355.48,119a.52.52,0,0,1-.16.4.54.54,0,0,1-.4.16h-2.55a.55.55,0,0,1-.56-.56V103.75a.55.55,0,0,1,.56-.56h2.55a.54.54,0,0,1,.4.16.52.52,0,0,1,.16.4Z" transform="translate(-14.53 -66.37)"/><path class="cls-1" d="M366.55,117.93a.83.83,0,0,0-.3-.37.76.76,0,0,0-.46-.14h-3.51a.78.78,0,0,0-.46.14.83.83,0,0,0-.3.37l-.47,1.14a.83.83,0,0,1-.3.37.79.79,0,0,1-.46.15h-1.9a.39.39,0,0,1-.35-.15.37.37,0,0,1,0-.37l6.29-15.5c.06-.15.12-.22.2-.22s.14.07.2.22l6.26,15.5a.37.37,0,0,1,0,.37.39.39,0,0,1-.35.15H367.8a.76.76,0,0,1-.45-.15,1,1,0,0,1-.33-.37Zm-1.88-3.31a.41.41,0,0,0,.35-.14.37.37,0,0,0,0-.37l-.78-1.93c-.06-.15-.13-.22-.2-.22s-.14.07-.2.22l-.79,1.93a.4.4,0,0,0,0,.37.42.42,0,0,0,.35.14Z" transform="translate(-14.53 -66.37)"/><path class="cls-1" d="M393.63,119.21c-.06.14-.12.22-.2.22s-.14-.08-.2-.22l-2.79-6.89c-.06-.15-.13-.23-.21-.23s-.14.08-.2.23l-2.79,6.89c-.06.14-.13.22-.2.22s-.15-.08-.21-.22l-6.28-15.5a.37.37,0,0,1,0-.37.39.39,0,0,1,.35-.15h2.84a.79.79,0,0,1,.46.15.83.83,0,0,1,.3.37l2.79,6.89c.06.14.13.22.21.22s.14-.08.2-.22l2.79-6.89c.06-.15.13-.23.2-.23s.14.08.21.23l2.79,6.89c.06.14.13.22.2.22s.14-.08.2-.22l2.8-6.89a.83.83,0,0,1,.3-.37.79.79,0,0,1,.46-.15h1.88a.35.35,0,0,1,.36.52Z" transform="translate(-14.53 -66.37)"/><path class="cls-1" d="M405.55,116.23a.54.54,0,0,0,.16.4.52.52,0,0,0,.4.16h4.14a.5.5,0,0,1,.39.16.46.46,0,0,1,.12.4l-.13,1.68a.63.63,0,0,1-.19.4.6.6,0,0,1-.41.16h-7.59a.58.58,0,0,1-.4-.16.55.55,0,0,1-.15-.4V103.75a.55.55,0,0,1,.15-.4.58.58,0,0,1,.4-.16H410a.6.6,0,0,1,.41.16.63.63,0,0,1,.19.4l.13,1.68a.46.46,0,0,1-.12.4.5.5,0,0,1-.39.16h-4.14a.55.55,0,0,0-.4.15.58.58,0,0,0-.16.41V111a.58.58,0,0,0,.16.41.55.55,0,0,0,.4.15h3.24a.51.51,0,0,1,.4.16.53.53,0,0,1,.12.4l-.13,1.68a.62.62,0,0,1-.61.56h-3a.55.55,0,0,0-.4.15.58.58,0,0,0-.16.41Z" transform="translate(-14.53 -66.37)"/><path class="cls-1" d="M421.61,110.55a2.18,2.18,0,0,0-.19.5,2.35,2.35,0,0,0-.08.55V119a.52.52,0,0,1-.16.4.54.54,0,0,1-.4.16h-2.55a.55.55,0,0,1-.56-.56v-7.45a2,2,0,0,0-.09-.55,2.16,2.16,0,0,0-.2-.5l-4-6.85a.35.35,0,0,1,0-.34.33.33,0,0,1,.33-.15h3.1a.85.85,0,0,1,.48.15,1,1,0,0,1,.35.34l2.06,3.56a.31.31,0,0,0,.28.2.32.32,0,0,0,.28-.2l2.06-3.56a1,1,0,0,1,.35-.34,1,1,0,0,1,.5-.15h2.1a.33.33,0,0,1,.32.15.35.35,0,0,1,0,.34Z" transform="translate(-14.53 -66.37)"/><path class="cls-1" d="M439.21,119.07a.37.37,0,0,1,0,.37.39.39,0,0,1-.35.15H436a.81.81,0,0,1-.46-.15.83.83,0,0,1-.3-.37l-1.76-4.36a.91.91,0,0,0-.27-.37.55.55,0,0,0-.36-.14h-.45a.55.55,0,0,0-.4.15.58.58,0,0,0-.16.4V119a.55.55,0,0,1-.15.4.58.58,0,0,1-.41.16h-2.55a.58.58,0,0,1-.4-.16.55.55,0,0,1-.15-.4V103.75a.55.55,0,0,1,.15-.4.58.58,0,0,1,.4-.16h4.61a5.16,5.16,0,0,1,2.09.44,5.57,5.57,0,0,1,1.75,1.18,5.82,5.82,0,0,1,1.19,1.76,5.14,5.14,0,0,1,.45,2.12,5.22,5.22,0,0,1-.48,2.2,5.74,5.74,0,0,1-1.33,1.83,1.12,1.12,0,0,0-.14.29.5.5,0,0,0,0,.38Zm-7.36-8.23a.54.54,0,0,0,.16.4.52.52,0,0,0,.4.16h.7a1.9,1.9,0,0,0,1.62-.77,3.42,3.42,0,0,0,.61-1.94,3,3,0,0,0-.11-1,2.74,2.74,0,0,0-.41-.86,2.23,2.23,0,0,0-.71-.62,2.11,2.11,0,0,0-1-.23h-.7a.55.55,0,0,0-.4.15.58.58,0,0,0-.16.41Z" transform="translate(-14.53 -66.37)"/><path class="cls-1" d="M446.05,119a.55.55,0,0,1-.15.4.58.58,0,0,1-.41.16H443a.58.58,0,0,1-.41-.16.55.55,0,0,1-.15-.4V103.75a.55.55,0,0,1,.15-.4.58.58,0,0,1,.41-.16h2.54a.58.58,0,0,1,.41.16.55.55,0,0,1,.15.4Z" transform="translate(-14.53 -66.37)"/><path class="cls-1" d="M462.62,118.09a8.68,8.68,0,0,1-2.37,1.26,8.06,8.06,0,0,1-2.75.46,8.32,8.32,0,0,1-3.19-.67,8.66,8.66,0,0,1-4.48-4.41,8.76,8.76,0,0,1-.76-3.28,8,8,0,0,1,.65-3.14,9.1,9.1,0,0,1,1.78-2.71,8.6,8.6,0,0,1,2.67-1.92,7.93,7.93,0,0,1,3.33-.71,8.36,8.36,0,0,1,2.36.33,9.19,9.19,0,0,1,2.12.94,1.18,1.18,0,0,1,.38.6.89.89,0,0,1,0,.72l-.33.79a1.06,1.06,0,0,1-.52.5.89.89,0,0,1-.8-.06,5.82,5.82,0,0,0-1.24-.49,5.22,5.22,0,0,0-1.38-.18,5,5,0,0,0-2,.42,5.47,5.47,0,0,0-2.87,2.81,5.1,5.1,0,0,0-.44,2.1,4.87,4.87,0,0,0,.43,2,5.45,5.45,0,0,0,1.15,1.69,5.59,5.59,0,0,0,1.69,1.16,4.9,4.9,0,0,0,2.05.44,5.62,5.62,0,0,0,1.4-.19,5.7,5.7,0,0,0,1.35-.57,1.48,1.48,0,0,1,.76-.22,1,1,0,0,1,.52.28l.65.68a.88.88,0,0,1,.22.61A.86.86,0,0,1,462.62,118.09Z" transform="translate(-14.53 -66.37)"/><path class="cls-1" d="M477.59,103.19a.58.58,0,0,1,.4.16.56.56,0,0,1,.16.4V119a.56.56,0,0,1-.16.4.58.58,0,0,1-.4.16H475a.58.58,0,0,1-.41-.16.55.55,0,0,1-.15-.4V115a.54.54,0,0,0-.16-.41.55.55,0,0,0-.4-.15h-3.6a.54.54,0,0,0-.4.15.54.54,0,0,0-.16.41V119a.52.52,0,0,1-.16.4.56.56,0,0,1-.4.16h-2.55a.56.56,0,0,1-.4-.16.52.52,0,0,1-.16-.4V103.75a.52.52,0,0,1,.16-.4.56.56,0,0,1,.4-.16h2.55a.56.56,0,0,1,.4.16.52.52,0,0,1,.16.4V111a.54.54,0,0,0,.16.41.54.54,0,0,0,.4.15h3.6a.55.55,0,0,0,.4-.15.54.54,0,0,0,.16-.41v-7.29a.55.55,0,0,1,.15-.4.58.58,0,0,1,.41-.16Z" transform="translate(-14.53 -66.37)"/></svg>