<?xml version="1.0" encoding="utf-8"?>
<!-- Generator: Adobe Illustrator 25.2.3, SVG Export Plug-In . SVG Version: 6.00 Build 0)  -->
<svg version="1.1" id="Layer_1" xmlns="http://www.w3.org/2000/svg" xmlns:xlink="http://www.w3.org/1999/xlink" x="0px" y="0px"
	 viewBox="0 0 508 508" style="enable-background:new 0 0 508 508;" xml:space="preserve">
<style type="text/css">
	.st0{fill:#FFFFFF;}
</style>
<g transform="translate(0.000000,508.000000) scale(0.100000,-0.100000)">
	<path class="st0" d="M2550,4934c-201-19-411-67-571-130c-686-269-1158-890-1238-1626c-62-563,181-1188,739-1908
		c124-159,307-377,786-934c116-136,230-191,389-189c151,1,263,55,367,175c147,168,498,580,609,713c706,848,998,1528,928,2163
		c-73,670-465,1239-1059,1537C3199,4886,2841,4961,2550,4934z M2820,4125c277-42,528-187,704-407c264-330,319-789,140-1167
		c-115-243-289-420-529-537c-317-154-659-152-980,6c-236,116-401,283-515,523c-149,313-145,668,11,980c106,211,273,381,480,487
		C2353,4124,2579,4162,2820,4125z"/>
</g>
</svg>
