<?xml version="1.0" encoding="utf-8"?>
<!-- Generator: Adobe Illustrator 25.2.3, SVG Export Plug-In . SVG Version: 6.00 Build 0)  -->
<svg version="1.1" id="Layer_1" xmlns="http://www.w3.org/2000/svg" xmlns:xlink="http://www.w3.org/1999/xlink" x="0px" y="0px"
	 viewBox="0 0 200 400" style="enable-background:new 0 0 200 400;" xml:space="preserve">
<style type="text/css">
	.st0{fill:none;stroke:#2A2228;stroke-width:3;stroke-linecap:square;stroke-linejoin:round;}
	.st1{fill:none;stroke:#2A2228;stroke-width:3;stroke-linecap:square;}
	.st2{fill:none;stroke:#2A2228;stroke-width:5;stroke-linejoin:round;}
	.st3{fill:none;stroke:#2A2228;stroke-width:5;}
	.st4{fill:none;stroke:#2A2228;stroke-width:3;stroke-linejoin:round;}
	.st5{fill:none;stroke:#2A2228;stroke-width:3;}
	.st6{fill:#2A2228;}
	.st7{fill-rule:evenodd;clip-rule:evenodd;fill:#333333;}
	.st8{fill-rule:evenodd;clip-rule:evenodd;fill:#FFFFFF;}
	.st9{fill:none;stroke:#00D4B4;stroke-width:3;stroke-linejoin:round;}
	.st10{fill:none;stroke:#00D4B4;stroke-width:3;}
	.st11{fill:#333333;}
</style>
<g>
	<line class="st0" x1="102" y1="118.7" x2="118.1" y2="102.2"/>
	<polyline class="st1" points="109,101.5 119,101.5 119,111.5 	"/>
</g>
<g>
	<line id="Stroke-1" class="st2" x1="0" y1="23" x2="80" y2="23"/>
	<polyline id="Stroke-3" class="st3" points="60,3 80,23 60,43 	"/>
</g>
<g>
	<line id="Stroke-1_1_" class="st4" x1="0" y1="69" x2="28" y2="69"/>
	<polyline id="Stroke-3_1_" class="st5" points="21,62 28,69 21,76 	"/>
</g>
<g>
	<rect y="159" class="st6" width="18" height="3"/>
	<g>
		<line id="Stroke-1_2_" class="st4" x1="9" y1="140" x2="9" y2="153"/>
		<polyline id="Stroke-3_2_" class="st5" points="16,146 9,153 2,146 		"/>
	</g>
</g>
<g>
	<rect x="100" y="159" class="st6" width="18" height="3"/>
	<g>
		<line id="Stroke-1_3_" class="st4" x1="109" y1="140" x2="109" y2="156"/>
		<polyline id="Stroke-3_3_" class="st5" points="116,149.5 109,156.5 102,149.5 		"/>
	</g>
</g>
<g id="Group-8" transform="translate(8.000000, 8.000000)">
	<g id="Group-3">
		<g id="Clip-2">
		</g>
		<path id="Fill-1_2_" class="st7" d="M4,172c-3.3,0-3.7,0-4.9,0.1c-1.3,0.1-2.1,0.3-2.9,0.6s-1.5,0.7-2.1,1.4
			c-0.7,0.7-1.1,1.3-1.4,2.1s-0.5,1.6-0.6,2.9C-8,180.3-8,180.7-8,184s0,3.7,0.1,4.9c0.1,1.3,0.3,2.1,0.6,2.9
			c0.3,0.8,0.7,1.5,1.4,2.1c0.7,0.7,1.3,1.1,2.1,1.4c0.8,0.3,1.6,0.5,2.9,0.6C0.3,196,0.7,196,4,196s3.7,0,4.9-0.1
			c1.3-0.1,2.1-0.3,2.9-0.6c0.8-0.3,1.5-0.7,2.1-1.4c0.7-0.7,1.1-1.3,1.4-2.1c0.3-0.8,0.5-1.6,0.6-2.9c0.1-1.3,0.1-1.7,0.1-4.9
			s0-3.7-0.1-4.9c-0.1-1.3-0.3-2.1-0.6-2.9c-0.3-0.8-0.7-1.5-1.4-2.1c-0.7-0.7-1.3-1.1-2.1-1.4c-0.8-0.3-1.6-0.5-2.9-0.6
			C7.7,172,7.3,172,4,172 M4,174.2c3.2,0,3.6,0,4.8,0.1s1.8,0.2,2.2,0.4c0.6,0.2,1,0.5,1.4,0.9s0.7,0.8,0.9,1.4
			c0.2,0.4,0.4,1.1,0.4,2.2c0.1,1.3,0.1,1.6,0.1,4.8s0,3.6-0.1,4.8s-0.2,1.8-0.4,2.2c-0.2,0.6-0.5,1-0.9,1.4s-0.8,0.7-1.4,0.9
			c-0.4,0.2-1.1,0.4-2.2,0.4c-1.3,0.1-1.6,0.1-4.8,0.1s-3.6,0-4.8-0.1s-1.8-0.2-2.2-0.4c-0.6-0.2-1-0.5-1.4-0.9s-0.7-0.8-0.9-1.4
			c-0.2-0.4-0.4-1.1-0.4-2.2c-0.1-1.3-0.1-1.6-0.1-4.8s0-3.6,0.1-4.8s0.2-1.8,0.4-2.2c0.2-0.6,0.5-1,0.9-1.4s0.8-0.7,1.4-0.9
			c0.4-0.2,1.1-0.4,2.2-0.4C0.4,174.2,0.8,174.2,4,174.2"/>
	</g>
	<path id="Fill-4" class="st7" d="M4,188c-2.2,0-4-1.8-4-4s1.8-4,4-4s4,1.8,4,4S6.2,188,4,188 M4,177.8c-3.4,0-6.2,2.8-6.2,6.2
		s2.8,6.2,6.2,6.2s6.2-2.8,6.2-6.2S7.4,177.8,4,177.8"/>
	<path id="Fill-6" class="st7" d="M11.8,177.6c0,0.8-0.6,1.4-1.4,1.4c-0.8,0-1.4-0.6-1.4-1.4c0-0.8,0.6-1.4,1.4-1.4
		C11.2,176.2,11.8,176.8,11.8,177.6"/>
</g>
<path id="Fill-1_1_" class="st7" d="M2.4,244h5v-11.9h3.4l0.5-4.1h-4v-2.6c0-0.9,0.5-1.1,1.4-1.1h2.4V220H6.7c-2,0-4.4,1.4-4.4,4.1
	v3.9H0v4.1h2.4V244z"/>
<path id="Fill-1" class="st7" d="M0.3,279.1h4.3v-12.9H0.3V279.1z M2.4,260C1,260,0,261,0,262.2s0.9,2.2,2.4,2.2l0,0
	c1.5,0,2.4-1,2.4-2.2S3.9,260,2.4,260L2.4,260z M20,271.7v7.4h-4.3v-6.9c0-1.7-0.6-2.9-2.2-2.9c-1.2,0-1.9,0.8-2.2,1.6
	c-0.1,0.3-0.1,0.7-0.1,1v7.2H6.9c0,0,0.1-11.7,0-12.9h4.3v1.8l0,0l0,0l0,0c0.6-0.9,1.6-2.1,3.9-2.1C17.9,265.9,20,267.8,20,271.7
	L20,271.7z"/>
<path id="Fill-1_3_" class="st7" d="M7.5,319.5c9.1,0,14-7.5,14-14c0-0.2,0-0.4,0-0.6c1-0.7,1.8-1.6,2.5-2.6
	c-0.9,0.4-1.8,0.7-2.8,0.8c1-0.6,1.8-1.6,2.2-2.7c-1,0.6-2,1-3.1,1.2c-0.9-1-2.2-1.6-3.6-1.6c-2.7,0-4.9,2.2-4.9,4.9
	c0,0.4,0,0.8,0.1,1.1c-4.1-0.2-7.7-2.2-10.1-5.1c-0.4,0.7-0.7,1.6-0.7,2.5c0,1.7,0.9,3.2,2.2,4.1c-0.8,0-1.6-0.2-2.2-0.6
	c0,0,0,0,0,0.1c0,2.4,1.7,4.4,4,4.8c-0.4,0.1-0.8,0.2-1.3,0.2c-0.3,0-0.6,0-0.9-0.1c0.6,2,2.4,3.4,4.6,3.4c-1.7,1.3-3.8,2.1-6.1,2.1
	c-0.4,0-0.8,0-1.2-0.1C2.2,318.7,4.8,319.5,7.5,319.5"/>
<g id="Group-8_1_" transform="translate(8.000000, 8.000000)">
	<g id="Group-3_1_">
		<g id="Clip-2_1_">
		</g>
		<path id="Fill-1_7_" class="st8" d="M104,172c-3.3,0-3.7,0-4.9,0.1c-1.3,0.1-2.1,0.3-2.9,0.6s-1.5,0.7-2.1,1.4
			c-0.7,0.7-1.1,1.3-1.4,2.1s-0.5,1.6-0.6,2.9c-0.1,1.3-0.1,1.7-0.1,4.9s0,3.7,0.1,4.9c0.1,1.3,0.3,2.1,0.6,2.9
			c0.3,0.8,0.7,1.5,1.4,2.1c0.7,0.7,1.3,1.1,2.1,1.4c0.8,0.3,1.6,0.5,2.9,0.6s1.7,0.1,4.9,0.1s3.7,0,4.9-0.1
			c1.3-0.1,2.1-0.3,2.9-0.6s1.5-0.7,2.1-1.4c0.7-0.7,1.1-1.3,1.4-2.1s0.5-1.6,0.6-2.9c0.1-1.3,0.1-1.7,0.1-4.9s0-3.7-0.1-4.9
			c-0.1-1.3-0.3-2.1-0.6-2.9c-0.3-0.8-0.7-1.5-1.4-2.1c-0.7-0.7-1.3-1.1-2.1-1.4c-0.8-0.3-1.6-0.5-2.9-0.6
			C107.7,172,107.3,172,104,172 M104,174.2c3.2,0,3.6,0,4.8,0.1c1.2,0.1,1.8,0.2,2.2,0.4c0.6,0.2,1,0.5,1.4,0.9s0.7,0.8,0.9,1.4
			c0.2,0.4,0.4,1.1,0.4,2.2c0.1,1.3,0.1,1.6,0.1,4.8s0,3.6-0.1,4.8s-0.2,1.8-0.4,2.2c-0.2,0.6-0.5,1-0.9,1.4s-0.8,0.7-1.4,0.9
			c-0.4,0.2-1.1,0.4-2.2,0.4c-1.3,0.1-1.6,0.1-4.8,0.1c-3.2,0-3.6,0-4.8-0.1c-1.2-0.1-1.8-0.2-2.2-0.4c-0.6-0.2-1-0.5-1.4-0.9
			s-0.7-0.8-0.9-1.4c-0.2-0.4-0.4-1.1-0.4-2.2c-0.1-1.3-0.1-1.6-0.1-4.8s0-3.6,0.1-4.8s0.2-1.8,0.4-2.2c0.2-0.6,0.5-1,0.9-1.4
			s0.8-0.7,1.4-0.9c0.4-0.2,1.1-0.4,2.2-0.4C100.4,174.2,100.8,174.2,104,174.2"/>
	</g>
	<path id="Fill-4_1_" class="st8" d="M104,188c-2.2,0-4-1.8-4-4s1.8-4,4-4s4,1.8,4,4S106.2,188,104,188 M104,177.8
		c-3.4,0-6.2,2.8-6.2,6.2s2.8,6.2,6.2,6.2s6.2-2.8,6.2-6.2S107.4,177.8,104,177.8"/>
	<path id="Fill-6_1_" class="st8" d="M111.8,177.6c0,0.8-0.6,1.4-1.4,1.4s-1.4-0.6-1.4-1.4c0-0.8,0.6-1.4,1.4-1.4
		C111.2,176.2,111.8,176.8,111.8,177.6"/>
</g>
<path id="Fill-1_6_" class="st8" d="M102.4,244h5v-11.9h3.4l0.5-4.1h-3.9v-2.6c0-0.9,0.5-1.1,1.4-1.1h2.4V220h-4.4
	c-2,0-4.4,1.4-4.4,4.1v3.9H100v4.1h2.4V244z"/>
<path id="Fill-1_5_" class="st8" d="M100.3,279.1h4.3v-12.9h-4.3V279.1z M102.4,260c-1.5,0-2.4,1-2.4,2.2s0.9,2.2,2.4,2.2l0,0
	c1.5,0,2.4-1,2.4-2.2S103.9,260,102.4,260L102.4,260z M120,271.7v7.4h-4.3v-6.9c0-1.7-0.6-2.9-2.2-2.9c-1.2,0-1.9,0.8-2.2,1.6
	c-0.1,0.3-0.1,0.7-0.1,1v7.2h-4.3c0,0,0.1-11.7,0-12.9h4.3v1.8l0,0l0,0l0,0c0.6-0.9,1.6-2.1,3.9-2.1
	C117.9,265.9,120,267.8,120,271.7L120,271.7z"/>
<path id="Fill-1_4_" class="st8" d="M107.5,319.5c9.1,0,14-7.5,14-14c0-0.2,0-0.4,0-0.6c1-0.7,1.8-1.6,2.5-2.6
	c-0.9,0.4-1.8,0.7-2.8,0.8c1-0.6,1.8-1.6,2.2-2.7c-1,0.6-2,1-3.1,1.2c-0.9-1-2.2-1.6-3.6-1.6c-2.7,0-4.9,2.2-4.9,4.9
	c0,0.4,0,0.8,0.1,1.1c-4.1-0.2-7.7-2.2-10.1-5.1c-0.4,0.7-0.7,1.6-0.7,2.5c0,1.7,0.9,3.2,2.2,4.1c-0.8,0-1.6-0.2-2.2-0.6
	c0,0,0,0,0,0.1c0,2.4,1.7,4.4,4,4.8c-0.4,0.1-0.8,0.2-1.3,0.2c-0.3,0-0.6,0-0.9-0.1c0.6,2,2.4,3.4,4.6,3.4c-1.7,1.3-3.8,2.1-6.1,2.1
	c-0.4,0-0.8,0-1.2-0.1C102.2,318.7,104.8,319.5,107.5,319.5"/>
<g>
	<line class="st0" x1="2.5" y1="118.7" x2="15.6" y2="105.4"/>
	<polyline class="st1" points="6.5,104.7 16.5,104.7 16.5,114.7 	"/>
</g>
<g>
	<line id="Stroke-1_4_" class="st4" x1="100" y1="16" x2="158" y2="16"/>
	<polyline id="Stroke-3_4_" class="st5" points="143.5,1.5 158,16 143.5,30.5 	"/>
</g>
<g>
	<line id="Stroke-1_5_" class="st4" x1="129.5" y1="69" x2="101.5" y2="69"/>
	<polyline id="Stroke-3_5_" class="st5" points="108.5,76 101.5,69 108.5,62 	"/>
</g>
<g>
	<line id="Stroke-1_6_" class="st9" x1="150" y1="69" x2="178" y2="69"/>
	<polyline id="Stroke-3_6_" class="st10" points="171,62 178,69 171,76 	"/>
</g>
<g>
	<line id="Stroke-1_8_" class="st2" x1="83" y1="362" x2="3" y2="362"/>
	<polyline id="Stroke-3_8_" class="st3" points="23,382 3,362 23,342 	"/>
</g>
<g>
	<line id="Stroke-1_7_" class="st4" x1="160" y1="355.5" x2="102" y2="355.5"/>
	<polyline id="Stroke-3_7_" class="st5" points="116.5,370 102,355.5 116.5,341 	"/>
</g>
<g transform="translate(0.000000,508.000000) scale(0.100000,-0.100000)">
	<path class="st11" d="M1079.7,3276.2c-10.6-1-21.6-3.5-30-6.8c-36.1-14.1-60.9-46.8-65.1-85.5c-3.3-29.6,9.5-62.4,38.8-100.3
		c6.5-8.4,16.1-19.8,41.3-49.1c6.1-7.1,12.1-10,20.4-9.9c7.9,0.1,13.8,2.9,19.3,9.2c7.7,8.8,26.2,30.5,32,37.5
		c37.1,44.6,52.5,80.3,48.8,113.7c-3.8,35.2-24.4,65.1-55.7,80.8C1113.8,3273.7,1095,3277.6,1079.7,3276.2z M1093.9,3233.7
		c14.6-2.2,27.8-9.8,37-21.4c13.9-17.3,16.8-41.5,7.4-61.3c-6-12.8-15.2-22.1-27.8-28.2c-16.7-8.1-34.6-8-51.5,0.3
		c-12.4,6.1-21.1,14.9-27.1,27.5c-7.8,16.5-7.6,35.1,0.6,51.5c5.6,11.1,14.4,20,25.2,25.6
		C1069.4,3233.6,1081.3,3235.6,1093.9,3233.7z"/>
</g>
</svg>
