<?xml version="1.0" encoding="utf-8"?>
<!-- Generator: Adobe Illustrator 25.4.1, SVG Export Plug-In . SVG Version: 6.00 Build 0)  -->
<svg version="1.1" id="Layer_1" xmlns="http://www.w3.org/2000/svg" xmlns:xlink="http://www.w3.org/1999/xlink" x="0px" y="0px"
	 viewBox="0 0 508 508" style="enable-background:new 0 0 508 508;" xml:space="preserve">
<style type="text/css">
	.st0{fill:#212931;}
</style>
<path class="st0" d="M483.7,135.5c-4.5-24.8-25.9-42.9-50.8-48.5C395.7,79,326.8,73.4,252.3,73.4c-74.5,0-144.4,5.6-181.7,13.5
	c-24.8,5.6-46.3,22.6-50.8,48.5c-4.5,28.2-9,67.7-9,118.5s4.5,90.3,10.1,118.5c4.5,24.8,26,42.9,50.8,48.5
	c39.5,7.9,107.2,13.5,181.7,13.5s142.2-5.6,181.7-13.5c24.8-5.6,46.3-22.6,50.8-48.5c4.5-28.2,10.1-68.9,11.3-118.5
	C495,203.2,489.3,163.7,483.7,135.5z M191.3,333V175L329,254L191.3,333z"/>
</svg>
